# Tiled2Unity generated file. Do not modify by hand.
# Wavefront file for '1_mesh_0004.obj'

# Vertices (Count = 28)
v -14700 -12900 0
v -15000 -12900 0
v -15000 -12600 0
v -14700 -12600 0
v -17400 -12900 0
v -17700 -12900 0
v -17700 -12600 0
v -17400 -12600 0
v -18900 -13800 0
v -19200 -13800 0
v -19200 -13500 0
v -18900 -13500 0
v -13500 -14400 0
v -13800 -14400 0
v -13800 -14100 0
v -13500 -14100 0
v -14700 -15900 0
v -15000 -15900 0
v -15000 -15600 0
v -14700 -15600 0
v -17400 -15900 0
v -17700 -15900 0
v -17700 -15600 0
v -17400 -15600 0
v -19800 -15900 0
v -20100 -15900 0
v -20100 -15600 0
v -19800 -15600 0

# Texture cooridinates (Count = 4)
vt 0 0
vt 1 0
vt 1 1
vt 0 1

# Normal
vn 0 0 -1

# Mesh description
g 1_mesh_0004

# Faces
f 1/1/1 2/2/1 3/3/1 4/4/1
f 5/1/1 6/2/1 7/3/1 8/4/1
f 9/2/1 10/3/1 11/4/1 12/1/1
f 13/2/1 14/3/1 15/4/1 16/1/1
f 17/1/1 18/2/1 19/3/1 20/4/1
f 21/1/1 22/2/1 23/3/1 24/4/1
f 25/1/1 26/2/1 27/3/1 28/4/1

