# Tiled2Unity generated file. Do not modify by hand.
# Wavefront file for '1_mesh_0008.obj'

# Vertices (Count = 24)
v -16800 -13500 0
v -17100 -13500 0
v -17100 -13200 0
v -16800 -13200 0
v -15000 -14700 0
v -15300 -14700 0
v -15300 -14400 0
v -15000 -14400 0
v -16500 -15300 0
v -16800 -15300 0
v -16800 -15000 0
v -16500 -15000 0
v -16800 -15300 0
v -17100 -15300 0
v -17100 -15000 0
v -16800 -15000 0
v -17100 -15300 0
v -17400 -15300 0
v -17400 -15000 0
v -17100 -15000 0
v -16800 -15600 0
v -17100 -15600 0
v -17100 -15300 0
v -16800 -15300 0

# Texture cooridinates (Count = 4)
vt 1 1
vt 0 1
vt 0 0
vt 1 0

# Normal
vn 0 0 -1

# Mesh description
g 1_mesh_0008

# Faces
f 1/1/1 2/2/1 3/3/1 4/4/1
f 5/1/1 6/2/1 7/3/1 8/4/1
f 9/4/1 10/1/1 11/2/1 12/3/1
f 13/3/1 14/4/1 15/1/1 16/2/1
f 17/2/1 18/3/1 19/4/1 20/1/1
f 21/1/1 22/2/1 23/3/1 24/4/1

