# Tiled2Unity generated file. Do not modify by hand.
# Wavefront file for '1_mesh_0012.obj'

# Vertices (Count = 12)
v -15900 -14700 0
v -16200 -14700 0
v -16200 -14400 0
v -15900 -14400 0
v -17700 -14700 0
v -18000 -14700 0
v -18000 -14400 0
v -17700 -14400 0
v -15900 -16500 0
v -16200 -16500 0
v -16200 -16200 0
v -15900 -16200 0

# Texture cooridinates (Count = 4)
vt 0 0
vt 1 0
vt 1 1
vt 0 1

# Normal
vn 0 0 -1

# Mesh description
g 1_mesh_0012

# Faces
f 1/1/1 2/2/1 3/3/1 4/4/1
f 5/3/1 6/4/1 7/1/1 8/2/1
f 9/4/1 10/1/1 11/2/1 12/3/1

