# Tiled2Unity generated file. Do not modify by hand.
# Wavefront file for '1_mesh_0003.obj'

# Vertices (Count = 252)
v -13800 -12900 0
v -14100 -12900 0
v -14100 -12600 0
v -13800 -12600 0
v -14100 -12900 0
v -14400 -12900 0
v -14400 -12600 0
v -14100 -12600 0
v -14400 -12900 0
v -14700 -12900 0
v -14700 -12600 0
v -14400 -12600 0
v -15000 -12900 0
v -15300 -12900 0
v -15300 -12600 0
v -15000 -12600 0
v -15300 -12900 0
v -15600 -12900 0
v -15600 -12600 0
v -15300 -12600 0
v -15600 -12900 0
v -15900 -12900 0
v -15900 -12600 0
v -15600 -12600 0
v -15900 -12900 0
v -16200 -12900 0
v -16200 -12600 0
v -15900 -12600 0
v -16200 -12900 0
v -16500 -12900 0
v -16500 -12600 0
v -16200 -12600 0
v -16500 -12900 0
v -16800 -12900 0
v -16800 -12600 0
v -16500 -12600 0
v -16800 -12900 0
v -17100 -12900 0
v -17100 -12600 0
v -16800 -12600 0
v -17100 -12900 0
v -17400 -12900 0
v -17400 -12600 0
v -17100 -12600 0
v -17700 -12900 0
v -18000 -12900 0
v -18000 -12600 0
v -17700 -12600 0
v -18000 -12900 0
v -18300 -12900 0
v -18300 -12600 0
v -18000 -12600 0
v -18300 -12900 0
v -18600 -12900 0
v -18600 -12600 0
v -18300 -12600 0
v -18600 -12900 0
v -18900 -12900 0
v -18900 -12600 0
v -18600 -12600 0
v -19200 -12900 0
v -19500 -12900 0
v -19500 -12600 0
v -19200 -12600 0
v -19500 -12900 0
v -19800 -12900 0
v -19800 -12600 0
v -19500 -12600 0
v -19800 -12900 0
v -20100 -12900 0
v -20100 -12600 0
v -19800 -12600 0
v -20100 -12900 0
v -20400 -12900 0
v -20400 -12600 0
v -20100 -12600 0
v -20400 -12900 0
v -20700 -12900 0
v -20700 -12600 0
v -20400 -12600 0
v -13500 -13200 0
v -13800 -13200 0
v -13800 -12900 0
v -13500 -12900 0
v -18900 -13200 0
v -19200 -13200 0
v -19200 -12900 0
v -18900 -12900 0
v -20700 -13200 0
v -21000 -13200 0
v -21000 -12900 0
v -20700 -12900 0
v -13500 -13500 0
v -13800 -13500 0
v -13800 -13200 0
v -13500 -13200 0
v -18900 -13500 0
v -19200 -13500 0
v -19200 -13200 0
v -18900 -13200 0
v -20700 -13500 0
v -21000 -13500 0
v -21000 -13200 0
v -20700 -13200 0
v -13500 -13800 0
v -13800 -13800 0
v -13800 -13500 0
v -13500 -13500 0
v -20700 -13800 0
v -21000 -13800 0
v -21000 -13500 0
v -20700 -13500 0
v -13500 -14100 0
v -13800 -14100 0
v -13800 -13800 0
v -13500 -13800 0
v -18900 -14100 0
v -19200 -14100 0
v -19200 -13800 0
v -18900 -13800 0
v -20700 -14100 0
v -21000 -14100 0
v -21000 -13800 0
v -20700 -13800 0
v -18900 -14400 0
v -19200 -14400 0
v -19200 -14100 0
v -18900 -14100 0
v -20700 -14400 0
v -21000 -14400 0
v -21000 -14100 0
v -20700 -14100 0
v -13500 -14700 0
v -13800 -14700 0
v -13800 -14400 0
v -13500 -14400 0
v -19200 -14700 0
v -19500 -14700 0
v -19500 -14400 0
v -19200 -14400 0
v -19500 -14700 0
v -19800 -14700 0
v -19800 -14400 0
v -19500 -14400 0
v -20100 -14700 0
v -20400 -14700 0
v -20400 -14400 0
v -20100 -14400 0
v -20400 -14700 0
v -20700 -14700 0
v -20700 -14400 0
v -20400 -14400 0
v -13500 -15000 0
v -13800 -15000 0
v -13800 -14700 0
v -13500 -14700 0
v -20700 -15000 0
v -21000 -15000 0
v -21000 -14700 0
v -20700 -14700 0
v -13500 -15300 0
v -13800 -15300 0
v -13800 -15000 0
v -13500 -15000 0
v -20700 -15300 0
v -21000 -15300 0
v -21000 -15000 0
v -20700 -15000 0
v -13500 -15600 0
v -13800 -15600 0
v -13800 -15300 0
v -13500 -15300 0
v -20700 -15600 0
v -21000 -15600 0
v -21000 -15300 0
v -20700 -15300 0
v -13800 -15900 0
v -14100 -15900 0
v -14100 -15600 0
v -13800 -15600 0
v -14100 -15900 0
v -14400 -15900 0
v -14400 -15600 0
v -14100 -15600 0
v -14400 -15900 0
v -14700 -15900 0
v -14700 -15600 0
v -14400 -15600 0
v -15000 -15900 0
v -15300 -15900 0
v -15300 -15600 0
v -15000 -15600 0
v -15300 -15900 0
v -15600 -15900 0
v -15600 -15600 0
v -15300 -15600 0
v -15600 -15900 0
v -15900 -15900 0
v -15900 -15600 0
v -15600 -15600 0
v -16200 -15900 0
v -16500 -15900 0
v -16500 -15600 0
v -16200 -15600 0
v -16500 -15900 0
v -16800 -15900 0
v -16800 -15600 0
v -16500 -15600 0
v -16800 -15900 0
v -17100 -15900 0
v -17100 -15600 0
v -16800 -15600 0
v -17100 -15900 0
v -17400 -15900 0
v -17400 -15600 0
v -17100 -15600 0
v -17700 -15900 0
v -18000 -15900 0
v -18000 -15600 0
v -17700 -15600 0
v -18000 -15900 0
v -18300 -15900 0
v -18300 -15600 0
v -18000 -15600 0
v -18300 -15900 0
v -18600 -15900 0
v -18600 -15600 0
v -18300 -15600 0
v -18600 -15900 0
v -18900 -15900 0
v -18900 -15600 0
v -18600 -15600 0
v -18900 -15900 0
v -19200 -15900 0
v -19200 -15600 0
v -18900 -15600 0
v -19200 -15900 0
v -19500 -15900 0
v -19500 -15600 0
v -19200 -15600 0
v -19500 -15900 0
v -19800 -15900 0
v -19800 -15600 0
v -19500 -15600 0
v -20100 -15900 0
v -20400 -15900 0
v -20400 -15600 0
v -20100 -15600 0
v -20400 -15900 0
v -20700 -15900 0
v -20700 -15600 0
v -20400 -15600 0

# Texture cooridinates (Count = 4)
vt 0 0
vt 1 0
vt 1 1
vt 0 1

# Normal
vn 0 0 -1

# Mesh description
g 1_mesh_0003

# Faces
f 1/1/1 2/2/1 3/3/1 4/4/1
f 5/1/1 6/2/1 7/3/1 8/4/1
f 9/1/1 10/2/1 11/3/1 12/4/1
f 13/1/1 14/2/1 15/3/1 16/4/1
f 17/1/1 18/2/1 19/3/1 20/4/1
f 21/1/1 22/2/1 23/3/1 24/4/1
f 25/1/1 26/2/1 27/3/1 28/4/1
f 29/1/1 30/2/1 31/3/1 32/4/1
f 33/1/1 34/2/1 35/3/1 36/4/1
f 37/1/1 38/2/1 39/3/1 40/4/1
f 41/1/1 42/2/1 43/3/1 44/4/1
f 45/1/1 46/2/1 47/3/1 48/4/1
f 49/1/1 50/2/1 51/3/1 52/4/1
f 53/1/1 54/2/1 55/3/1 56/4/1
f 57/1/1 58/2/1 59/3/1 60/4/1
f 61/3/1 62/4/1 63/1/1 64/2/1
f 65/3/1 66/4/1 67/1/1 68/2/1
f 69/3/1 70/4/1 71/1/1 72/2/1
f 73/3/1 74/4/1 75/1/1 76/2/1
f 77/3/1 78/4/1 79/1/1 80/2/1
f 81/4/1 82/1/1 83/2/1 84/3/1
f 85/2/1 86/3/1 87/4/1 88/1/1
f 89/4/1 90/1/1 91/2/1 92/3/1
f 93/4/1 94/1/1 95/2/1 96/3/1
f 97/2/1 98/3/1 99/4/1 100/1/1
f 101/4/1 102/1/1 103/2/1 104/3/1
f 105/4/1 106/1/1 107/2/1 108/3/1
f 109/4/1 110/1/1 111/2/1 112/3/1
f 113/4/1 114/1/1 115/2/1 116/3/1
f 117/2/1 118/3/1 119/4/1 120/1/1
f 121/4/1 122/1/1 123/2/1 124/3/1
f 125/2/1 126/3/1 127/4/1 128/1/1
f 129/4/1 130/1/1 131/2/1 132/3/1
f 133/4/1 134/1/1 135/2/1 136/3/1
f 137/3/1 138/4/1 139/1/1 140/2/1
f 141/3/1 142/4/1 143/1/1 144/2/1
f 145/3/1 146/4/1 147/1/1 148/2/1
f 149/3/1 150/4/1 151/1/1 152/2/1
f 153/4/1 154/1/1 155/2/1 156/3/1
f 157/4/1 158/1/1 159/2/1 160/3/1
f 161/4/1 162/1/1 163/2/1 164/3/1
f 165/4/1 166/1/1 167/2/1 168/3/1
f 169/4/1 170/1/1 171/2/1 172/3/1
f 173/4/1 174/1/1 175/2/1 176/3/1
f 177/1/1 178/2/1 179/3/1 180/4/1
f 181/1/1 182/2/1 183/3/1 184/4/1
f 185/1/1 186/2/1 187/3/1 188/4/1
f 189/1/1 190/2/1 191/3/1 192/4/1
f 193/1/1 194/2/1 195/3/1 196/4/1
f 197/1/1 198/2/1 199/3/1 200/4/1
f 201/3/1 202/4/1 203/1/1 204/2/1
f 205/3/1 206/4/1 207/1/1 208/2/1
f 209/3/1 210/4/1 211/1/1 212/2/1
f 213/3/1 214/4/1 215/1/1 216/2/1
f 217/3/1 218/4/1 219/1/1 220/2/1
f 221/1/1 222/2/1 223/3/1 224/4/1
f 225/3/1 226/4/1 227/1/1 228/2/1
f 229/3/1 230/4/1 231/1/1 232/2/1
f 233/3/1 234/4/1 235/1/1 236/2/1
f 237/3/1 238/4/1 239/1/1 240/2/1
f 241/3/1 242/4/1 243/1/1 244/2/1
f 245/3/1 246/4/1 247/1/1 248/2/1
f 249/3/1 250/4/1 251/1/1 252/2/1

