# Tiled2Unity generated file. Do not modify by hand.
# Wavefront file for '1_mesh_0006.obj'

# Vertices (Count = 28)
v -14100 -13500 0
v -14400 -13500 0
v -14400 -13200 0
v -14100 -13200 0
v -15900 -13500 0
v -16200 -13500 0
v -16200 -13200 0
v -15900 -13200 0
v -19200 -13500 0
v -19500 -13500 0
v -19500 -13200 0
v -19200 -13200 0
v -20400 -13500 0
v -20700 -13500 0
v -20700 -13200 0
v -20400 -13200 0
v -19200 -14400 0
v -19500 -14400 0
v -19500 -14100 0
v -19200 -14100 0
v -20400 -14400 0
v -20700 -14400 0
v -20700 -14100 0
v -20400 -14100 0
v -17700 -15300 0
v -18000 -15300 0
v -18000 -15000 0
v -17700 -15000 0

# Texture cooridinates (Count = 4)
vt 0 0
vt 1 0
vt 1 1
vt 0 1

# Normal
vn 0 0 -1

# Mesh description
g 1_mesh_0006

# Faces
f 1/1/1 2/2/1 3/3/1 4/4/1
f 5/2/1 6/3/1 7/4/1 8/1/1
f 9/1/1 10/2/1 11/3/1 12/4/1
f 13/2/1 14/3/1 15/4/1 16/1/1
f 17/4/1 18/1/1 19/2/1 20/3/1
f 21/3/1 22/4/1 23/1/1 24/2/1
f 25/4/1 26/1/1 27/2/1 28/3/1

