# Tiled2Unity generated file. Do not modify by hand.
# Wavefront file for '1_mesh_0002.obj'

# Vertices (Count = 20)
v -13500 -12900 0
v -13800 -12900 0
v -13800 -12600 0
v -13500 -12600 0
v -20700 -12900 0
v -21000 -12900 0
v -21000 -12600 0
v -20700 -12600 0
v -18900 -14700 0
v -19200 -14700 0
v -19200 -14400 0
v -18900 -14400 0
v -13500 -15900 0
v -13800 -15900 0
v -13800 -15600 0
v -13500 -15600 0
v -20700 -15900 0
v -21000 -15900 0
v -21000 -15600 0
v -20700 -15600 0

# Texture cooridinates (Count = 4)
vt 0 0
vt 1 0
vt 1 1
vt 0 1

# Normal
vn 0 0 -1

# Mesh description
g 1_mesh_0002

# Faces
f 1/1/1 2/2/1 3/3/1 4/4/1
f 5/2/1 6/3/1 7/4/1 8/1/1
f 9/4/1 10/1/1 11/2/1 12/3/1
f 13/4/1 14/1/1 15/2/1 16/3/1
f 17/3/1 18/4/1 19/1/1 20/2/1

